<?xml version="1.0" encoding="UTF-8"?>
<svg id="_图层_1" data-name="图层 1" xmlns="http://www.w3.org/2000/svg" viewBox="0 0 46.865 46.865">
  <g id="icon-1">
    <path d="m22.857.007C9.917.337-.313,11.067.007,23.997c.33,12.95,11.09,23.18,24.03,22.86,12.94-.33,23.15-11.09,22.82-24.04C46.537,9.897,35.797-.313,22.857.007" style="fill: #000; stroke-width: 0px;"/>
    <g>
      <path d="m24.767,8.167l.08-.85c.07-.77-.54-1.44-1.31-1.44h-.19c-.77,0-1.38.67-1.32,1.44l.07.85c.06.68.63,1.2,1.31,1.2h.04c.69,0,1.26-.51,1.32-1.2Z" style="fill: #fff; stroke-width: 0px;"/>
      <path d="m29.517,6.957c-.06-.02-.12-.04-.18-.06-.73-.26-1.53.16-1.73.91l-.22.83c-.18.66.18,1.34.83,1.58.01,0,.02.01.03.01.64.23,1.36-.06,1.64-.68l.36-.78c.35-.7,0-1.54-.73-1.81Z" style="fill: #fff; stroke-width: 0px;"/>
      <path d="m14.657,10.877l-.49-.7c-.44-.63-1.34-.75-1.93-.26-.05.04-.1.08-.14.12-.59.5-.63,1.4-.08,1.95l.6.61c.48.48,1.25.52,1.78.07.01-.01.02-.02.03-.02.52-.45.62-1.21.23-1.77Z" style="fill: #fff; stroke-width: 0px;"/>
      <path d="m19.477,8.627l-.22-.83c-.2-.75-1-1.17-1.73-.91-.06.02-.12.04-.18.06-.73.27-1.07,1.1-.74,1.81l.36.78c.29.62,1,.91,1.65.68.01,0,.02-.01.03-.01.65-.24,1-.92.83-1.58Z" style="fill: #fff; stroke-width: 0px;"/>
      <path d="m34.777,10.037c-.05-.04-.1-.08-.14-.12-.6-.49-1.49-.38-1.93.26l-.49.7c-.39.56-.29,1.32.24,1.76.01.01.02.02.03.02.52.44,1.29.41,1.78-.07l.61-.61c.53-.54.49-1.44-.1-1.94Z" style="fill: #fff; stroke-width: 0px;"/>
      <path d="m38.697,22.077l.84-.07c.78-.07,1.33-.79,1.2-1.55-.01-.06-.02-.11-.03-.17-.14-.77-.91-1.25-1.66-1.05l-.81.22c-.66.18-1.08.83-.96,1.51v.02c.12.67.73,1.15,1.42,1.09Z" style="fill: #fff; stroke-width: 0px;"/>
      <path d="m37.307,16.947l.78-.36c.7-.33.97-1.19.59-1.86-.03-.05-.06-.11-.09-.16-.39-.67-1.27-.86-1.91-.42l-.7.49c-.56.39-.72,1.15-.38,1.74.01.01.01.02.02.03.34.59,1.07.83,1.69.54Z" style="fill: #fff; stroke-width: 0px;"/>
      <path d="m8.647,19.447l-.82-.22c-.75-.2-1.51.28-1.65,1.05-.01.06-.02.12-.03.18-.13.77.43,1.49,1.21,1.55l.85.07c.68.05,1.28-.42,1.39-1.09v-.02c.12-.69-.29-1.34-.95-1.52Z" style="fill: #fff; stroke-width: 0px;"/>
      <path d="m8.787,16.577l.78.36c.62.29,1.35.06,1.7-.54.01-.01.01-.02.02-.03.34-.59.18-1.35-.38-1.74l-.7-.49c-.63-.45-1.52-.25-1.91.42-.03.05-.06.11-.09.16-.4.67-.12,1.53.58,1.86Z" style="fill: #fff; stroke-width: 0px;"/>
      <path d="m28.147,20.707l-1.98-1.98,3.64-3.64c-4.11-3.14-10.01-2.84-13.77.92-4.09,4.09-4.09,10.73,0,14.82s10.73,4.09,14.83,0c3.76-3.76,4.06-9.66.92-13.77l-3.64,3.65Z" style="fill: #fff; stroke-width: 0px;"/>
      <path d="m24.767,38.707l.07.84c.07.78-.54,1.45-1.32,1.45h-.17c-.78,0-1.39-.67-1.32-1.45l.07-.84c.06-.69.63-1.21,1.32-1.21h.03c.69.01,1.26.53,1.32,1.21Z" style="fill: #fff; stroke-width: 0px;"/>
      <path d="m29.517,39.917c-.05.02-.11.04-.16.06-.73.26-1.54-.16-1.74-.91l-.22-.81c-.18-.66.18-1.35.83-1.58.01,0,.02-.01.02-.01.65-.24,1.36.06,1.65.68l.36.76c.33.7-.01,1.54-.74,1.81Z" style="fill: #fff; stroke-width: 0px;"/>
      <path d="m14.657,35.997l-.49.7c-.44.63-1.34.75-1.93.26-.05-.04-.1-.08-.14-.12-.59-.5-.63-1.4-.08-1.95l.6-.61c.48-.48,1.25-.52,1.78-.07.01.01.02.02.03.02.52.44.62,1.21.23,1.77Z" style="fill: #fff; stroke-width: 0px;"/>
      <path d="m19.477,38.247l-.22.83c-.2.75-1,1.17-1.73.91-.06-.02-.12-.04-.18-.06-.73-.27-1.07-1.1-.74-1.81l.36-.78c.29-.62,1-.91,1.65-.68.01,0,.02.01.03.01.65.23,1,.92.83,1.58Z" style="fill: #fff; stroke-width: 0px;"/>
      <path d="m34.777,36.837c-.04.04-.09.07-.13.11-.6.5-1.5.38-1.94-.26l-.48-.69c-.39-.56-.29-1.33.24-1.77l.02-.02c.53-.44,1.3-.41,1.79.07l.6.6c.53.55.49,1.46-.1,1.96Z" style="fill: #fff; stroke-width: 0px;"/>
      <path d="m38.687,24.797l.85.07c.77.07,1.32.78,1.19,1.55-.01.06-.02.12-.03.18-.14.76-.9,1.24-1.65,1.04l-.83-.22c-.66-.18-1.07-.83-.95-1.5,0-.01,0-.02.01-.04.12-.67.73-1.14,1.41-1.08Z" style="fill: #fff; stroke-width: 0px;"/>
      <path d="m37.307,29.927l.78.36c.7.33.97,1.19.59,1.86-.03.05-.06.11-.09.16-.39.67-1.27.86-1.91.42l-.7-.49c-.56-.39-.72-1.15-.38-1.74.01-.01.01-.02.02-.03.34-.59,1.07-.83,1.69-.54Z" style="fill: #fff; stroke-width: 0px;"/>
      <path d="m8.647,27.427l-.82.22c-.75.2-1.51-.28-1.65-1.05-.01-.06-.02-.12-.03-.18-.13-.77.43-1.49,1.21-1.55l.85-.07c.68-.05,1.28.42,1.39,1.09v.02c.12.69-.29,1.34-.95,1.52Z" style="fill: #fff; stroke-width: 0px;"/>
      <path d="m8.787,30.297l.78-.36c.62-.29,1.35-.06,1.7.54.01.01.01.02.02.03.34.59.18,1.35-.38,1.74l-.7.49c-.63.45-1.52.25-1.91-.42-.03-.05-.06-.11-.09-.16-.4-.67-.12-1.53.58-1.86Z" style="fill: #fff; stroke-width: 0px;"/>
    </g>
  </g>
</svg>