<?xml version="1.0" encoding="UTF-8"?>
<svg id="_图层_1" data-name="图层 1" xmlns="http://www.w3.org/2000/svg" viewBox="0 0 25.52 25.52">
  <g id="icon-4">
    <path d="m25.52,12.76c0,7.03-5.72,12.76-12.76,12.76S0,19.8,0,12.76,5.72,0,12.76,0s12.76,5.72,12.76,12.76Z" style="fill: #000; stroke-width: 0px;"/>
    <g>
      <path d="m9.33,16.03c0-1.09-.43-2.11-1.2-2.89-.02-.03-.04-.06-.07-.08-.76-.73-1.18-1.71-1.18-2.74,0-1.37.77-2.65,2-3.34.22-.13.3-.41.18-.63-.13-.22-.41-.3-.63-.18-1.52.86-2.47,2.45-2.47,4.15,0,1.25.49,2.43,1.39,3.33.02.03.04.06.07.08.64.62,1,1.43,1,2.3,0,1-.47,1.93-1.28,2.55-.2.16-.24.45-.09.65.16.2.45.24.65.09,1.03-.81,1.63-2,1.63-3.29h0Z" style="fill: #fff; stroke-width: 0px;"/>
      <path d="m9.36,10.31c0,1.25.49,2.43,1.39,3.33.02.03.04.06.07.08.64.62,1,1.43,1,2.3,0,1-.47,1.93-1.28,2.55-.2.16-.24.45-.09.65s.45.24.65.09c1.05-.8,1.65-2,1.65-3.28,0-1.09-.43-2.11-1.2-2.89-.02-.03-.04-.06-.07-.08-.76-.73-1.18-1.71-1.18-2.74,0-1.37.77-2.65,2-3.34.22-.13.3-.41.18-.63-.13-.22-.41-.3-.63-.18-1.54.85-2.49,2.44-2.49,4.14h0Z" style="fill: #fff; stroke-width: 0px;"/>
      <path d="m12.77,10.31c0,1.25.49,2.43,1.39,3.33.02.03.04.06.07.08.64.62,1,1.43,1,2.3,0,1-.47,1.93-1.28,2.55-.2.16-.24.45-.09.65s.45.24.65.09c1.05-.8,1.65-2,1.65-3.28,0-1.09-.43-2.11-1.2-2.89-.02-.03-.04-.06-.07-.08-.76-.73-1.18-1.71-1.18-2.74,0-1.37.77-2.65,2-3.34.22-.13.3-.41.18-.63-.13-.22-.41-.3-.63-.18-1.54.85-2.49,2.44-2.49,4.14h0Z" style="fill: #fff; stroke-width: 0px;"/>
      <path d="m16.19,10.31c0,1.25.49,2.43,1.39,3.33.02.03.04.06.07.08.64.62,1,1.43,1,2.3,0,1-.47,1.93-1.28,2.55-.2.16-.24.45-.09.65s.45.24.65.09c1.05-.8,1.65-2,1.65-3.28,0-1.09-.43-2.11-1.2-2.89-.02-.03-.04-.06-.07-.08-.76-.73-1.18-1.71-1.18-2.74,0-1.37.77-2.65,2-3.34.22-.13.3-.41.18-.63-.13-.22-.41-.3-.63-.18-1.55.85-2.49,2.44-2.49,4.14h0Z" style="fill: #fff; stroke-width: 0px;"/>
    </g>
  </g>
</svg>