<svg xmlns="http://www.w3.org/2000/svg" viewBox="0 0 14.76 14.86"><defs><style>.cls-1{fill:#000;}.cls-2{fill:#fff;}</style></defs><g id="图层_2" data-name="图层 2"><g id="图层_1-2" data-name="图层 1"><g id="ai-generated-watch-faces"><path class="cls-1" d="M14.76,7.43A7.38,7.38,0,1,1,7.38,0a7.4,7.4,0,0,1,7.38,7.43"/><path class="cls-2" d="M11.16,7.78l-.58-1.26V6.35A3.16,3.16,0,0,0,9.51,4a3.69,3.69,0,0,0-2.84-.9A3.41,3.41,0,0,0,3.58,6a3.15,3.15,0,0,0,1.1,2.77,1.08,1.08,0,0,1,.37,1.1l-.34,1.29a.54.54,0,0,0,0,.45.33.33,0,0,0,.29.13H8.22a.38.38,0,0,0,.37-.29l.21-.93A.23.23,0,0,1,9,10.33h.84a.7.7,0,0,0,.49-.2.67.67,0,0,0,.21-.48V8.46h.12a.54.54,0,0,0,.43-.23.48.48,0,0,0,0-.45"/><path class="cls-1" d="M5.56,4.36h.68l1.11,3H6.67l-.23-.67H5.33l-.23.67H4.44ZM5.5,6.19h.77L5.9,5.09h0Z"/><rect class="cls-1" x="7.69" y="4.36" width="0.65" height="3"/></g></g></g></svg>