<svg width="135" height="40" viewBox="0 0 135 40" fill="none" xmlns="http://www.w3.org/2000/svg">
<path d="M129.614 39.595H4.98289C2.47346 39.595 0.405 37.4957 0.405 35.0153V4.9849C0.40616 3.77088 0.888824 2.60689 1.74711 1.74829C2.60538 0.889708 3.76917 0.40662 4.98316 0.405H129.614C130.828 0.406388 131.992 0.88938 132.851 1.748C133.709 2.60667 134.192 3.77086 134.193 4.98509V35.0149C134.192 36.2291 133.709 37.3933 132.851 38.252C131.992 39.1107 130.828 39.5937 129.614 39.595Z" stroke="#333333" stroke-width="0.81"/>
<path d="M47.2665 10.2697C47.2665 11.1118 47.0238 11.7714 46.5367 12.2521C45.9902 12.8524 45.2613 13.1535 44.3499 13.1535C43.9432 13.1594 43.5396 13.0826 43.1635 12.9276C42.7874 12.7727 42.4468 12.5428 42.1623 12.2521C41.5547 11.6518 41.25 10.9311 41.25 10.0298C41.25 9.12938 41.5538 8.40867 42.1623 7.80748C42.4469 7.51706 42.7876 7.28749 43.1637 7.13271C43.5397 6.97793 43.9433 6.90116 44.3499 6.90705C44.7751 6.90705 45.2002 6.96726 45.5651 7.14698C45.93 7.32762 46.294 7.50734 46.4765 7.80839L45.9291 8.34846C45.504 7.8686 44.9575 7.62776 44.2888 7.62776C43.6812 7.62776 43.1348 7.8686 42.6485 8.28825C42.1623 8.70881 41.9798 9.31001 41.9798 10.0307C41.9798 10.7514 42.2225 11.2906 42.6485 11.7714C43.1348 12.1919 43.6812 12.4328 44.2888 12.4328C44.9575 12.4328 45.504 12.1919 45.93 11.7714C46.2329 11.4712 46.4163 11.0506 46.4163 10.5708H44.2277V9.85008H47.2054C47.2665 9.96959 47.2665 10.09 47.2665 10.2697Z" fill="#333333"/>
<path d="M44.2921 13.2138C43.4418 13.2138 42.6527 12.9127 42.0451 12.3124C41.4366 11.7121 41.1328 10.9312 41.1328 10.0299C41.1328 9.12946 41.4366 8.34854 42.0451 7.74735C42.6527 7.14707 43.3816 6.84692 44.293 6.84692C44.7181 6.84692 45.1441 6.90713 45.5692 7.08777C45.9333 7.24285 46.2626 7.46728 46.5408 7.74826V7.80756L45.9342 8.40875L45.873 8.34854C45.5081 7.86868 44.9608 7.68805 44.293 7.68805C43.6854 7.68805 43.1389 7.92798 42.7129 8.34854C42.2878 8.76911 42.0451 9.36939 42.0451 10.0299C42.0451 10.7515 42.2878 11.2907 42.7129 11.7121C42.9194 11.9214 43.1654 12.0876 43.4366 12.201C43.7079 12.3144 43.999 12.3727 44.293 12.3726C44.9617 12.3726 45.5081 12.1327 45.9342 11.7121C46.1759 11.4111 46.3593 11.0507 46.4204 10.5709H44.2318V9.72974H47.2095V9.78995C47.2707 9.91037 47.2707 10.0901 47.2707 10.2698C47.2707 11.1119 47.028 11.7714 46.5408 12.3133C45.9944 12.8534 45.2043 13.2138 44.293 13.2138H44.2921ZM44.2921 6.90713C43.8856 6.90131 43.4822 6.97812 43.1063 7.1329C42.7304 7.28768 42.3898 7.51721 42.1053 7.80756C41.4977 8.40875 41.193 9.12946 41.193 10.0299C41.193 10.871 41.4977 11.6519 42.1053 12.2522C42.3899 12.5428 42.7305 12.7726 43.1066 12.9275C43.4826 13.0825 43.8863 13.1594 44.293 13.1535C45.2052 13.1535 45.9342 12.8525 46.4815 12.2522C46.9669 11.7714 47.2095 11.1119 47.2095 10.2698C47.2095 10.1503 47.2095 9.96967 47.1493 9.85016H44.3541V10.4504H46.5408V10.5107C46.4806 11.0507 46.2991 11.4713 46.0546 11.7714C45.6304 12.2522 45.0219 12.4328 44.3541 12.4328C43.742 12.4334 43.1536 12.1962 42.7129 11.7714C42.2266 11.2916 41.9831 10.7506 41.9831 10.0299C41.9831 9.30918 42.2266 8.7089 42.7129 8.28833C43.1991 7.86868 43.7456 7.62784 44.3541 7.62784C45.0219 7.62784 45.5692 7.86868 45.9944 8.28833L46.4204 7.80756C46.1768 7.56763 45.873 7.3277 45.5081 7.20728C45.1432 7.02756 44.7181 6.90622 44.293 6.90622L44.2921 6.90713ZM51.8275 7.74735H49.0943V9.67044H51.5246V10.3911H49.0934V12.3133H51.8284V13.034H48.3645V7.02756H51.8284V7.74826L51.8275 7.74735Z" fill="#333333"/>
<path d="M51.9056 13.0332H48.3203V6.96655H51.9056V7.80768H49.1715V9.61035H51.6027V10.4506H49.1715V12.2523H51.9056V13.0332ZM48.4416 12.973H51.8445V12.3125H49.1104V10.3301H51.5407V9.72986H49.1104V7.74747H51.8445V7.08697H48.4416V12.973ZM55.1259 12.973H54.3359V7.68726H52.6947V6.96655H56.8274V7.68726H55.1259V12.973Z" fill="#333333"/>
<path d="M55.1886 13.0332H54.3374V7.80768H52.6953V6.96655H56.8891V7.80768H55.2488V13.0332H55.1886ZM54.3985 12.973H55.0672V7.68817H56.7075V7.02676H52.6971V7.68817H54.3374V12.973H54.3985ZM59.7464 12.973V6.96655H60.5355V12.973H59.7464Z" fill="#333333"/>
<path d="M60.5768 13.0332H59.7266V6.96655H60.5768V13.0332ZM59.7868 12.973H60.4555V7.08789H59.7877V12.973H59.7868ZM63.9194 12.973H63.1294V7.68726H61.428V6.96655H65.5597V7.68817H63.8592L63.9194 12.973Z" fill="#333333"/>
<path d="M63.9368 13.033H63.1467V7.80748H61.4453V6.96636H65.6382V7.80748H63.9368V13.033ZM63.2069 12.9728H63.8766V7.68797H65.577V7.02657H61.5666V7.68797H63.2681V12.9728H63.2078H63.2069ZM73.4154 12.2521C73.1311 12.5428 72.7906 12.7726 72.4147 12.9276C72.0387 13.0825 71.6352 13.1594 71.2286 13.1535C70.8219 13.1594 70.4183 13.0826 70.0422 12.9276C69.6661 12.7727 69.3255 12.5428 69.041 12.2521C68.4334 11.6518 68.1898 10.9311 68.1898 10.0298C68.1898 9.12938 68.4945 8.40868 69.041 7.80748C69.3256 7.51702 69.6663 7.28743 70.0424 7.13264C70.4184 6.97786 70.822 6.90111 71.2286 6.90706C72.0798 6.90706 72.8087 7.20811 73.4172 7.80748C74.0239 8.40868 74.3277 9.12938 74.3277 10.0298C74.2675 10.8709 73.9628 11.6518 73.4154 12.2521ZM69.5884 11.7121C70.0135 12.1317 70.5599 12.3726 71.2286 12.3726C71.8974 12.3726 72.3836 12.1326 72.8698 11.7121C73.295 11.2915 73.5376 10.6903 73.5376 9.9696C73.5376 9.24889 73.295 8.70882 72.8698 8.22805C72.4438 7.8084 71.8973 7.56755 71.2277 7.56755C70.5599 7.56755 70.0746 7.80748 69.5884 8.22805C69.1623 8.64861 68.9197 9.2498 68.9197 9.97051C68.9197 10.6912 69.1021 11.2915 69.5884 11.7121Z" fill="#333333"/>
<path d="M71.167 13.2138C70.2557 13.2138 69.5268 12.9127 68.9183 12.3124C68.3116 11.7121 68.0078 10.9312 68.0078 10.0299C68.0078 9.12946 68.3116 8.40875 68.9183 7.74735C69.5268 7.14707 70.2557 6.84692 71.168 6.84692C72.0182 6.84692 72.8082 7.14798 73.4158 7.74735C74.0234 8.34854 74.3281 9.12946 74.3281 10.0299C74.3281 10.9312 74.0234 11.6519 73.4158 12.3124C72.8082 12.8534 72.0793 13.2138 71.167 13.2138ZM71.167 6.90713C70.7606 6.90131 70.3572 6.97812 69.9813 7.1329C69.6054 7.28768 69.2648 7.51721 68.9803 7.80756C68.4329 8.40875 68.1291 9.12946 68.1291 10.0299C68.1291 10.871 68.4329 11.6519 68.9803 12.2522C69.587 12.8525 70.2557 13.1535 71.167 13.1535C72.0182 13.1535 72.7471 12.8525 73.2945 12.2522C73.8419 11.6519 74.1447 10.9312 74.1447 10.0299C74.1447 9.18967 73.841 8.46805 73.2945 7.86777C72.7471 7.20728 72.0793 6.90713 71.167 6.90713ZM71.167 12.4328C70.4993 12.4328 69.9519 12.1929 69.5268 11.7714C69.1007 11.2916 68.8581 10.7506 68.8581 10.0299C68.8581 9.30918 69.1007 8.7089 69.5268 8.28833C69.9519 7.80756 70.5595 7.62784 71.167 7.62784C71.8358 7.62784 72.3822 7.86868 72.8082 8.28833C73.2334 8.76911 73.476 9.31009 73.476 10.0308C73.476 10.7515 73.2334 11.3518 72.8082 11.7714C72.3822 12.1929 71.8358 12.4328 71.167 12.4328ZM71.167 7.62784C70.5595 7.62784 70.013 7.86868 69.587 8.28833C69.1618 8.7089 68.9183 9.31009 68.9183 9.96967C68.9183 10.6311 69.1618 11.2314 69.587 11.6519C69.7934 11.8613 70.0394 12.0276 70.3106 12.1411C70.5819 12.2546 70.873 12.3131 71.167 12.3131C71.4611 12.3131 71.7522 12.2546 72.0235 12.1411C72.2947 12.0276 72.5407 11.8613 72.7471 11.6519C73.1723 11.2323 73.4158 10.6302 73.4158 9.96967C73.4158 9.30918 73.1732 8.7089 72.7471 8.28833C72.3822 7.86868 71.8358 7.62784 71.167 7.62784ZM75.3599 12.9729V6.96643H76.2713L79.1888 11.6519H79.249L79.1888 10.5107V7.02756H79.9788V13.0331H79.1888L76.1499 8.16882H76.0897L76.1499 9.30918V13.034L75.3599 12.9729Z" fill="#333333"/>
<path d="M76.1445 13.0332H75.2934V6.96655H76.327L79.1824 11.5316V6.96655H80.0327V13.0332H79.1824L76.2047 8.22915L76.2649 9.25V13.0342H76.1445V13.0332ZM75.4147 12.973H76.0834V9.3093L76.0232 8.10873H76.1445L79.1824 12.973H79.9123V7.08697H79.2426V10.571L79.3038 11.7716H79.1824L76.2649 7.14719H75.4147V12.973ZM67.9404 21.7419C65.5702 21.7419 63.6864 23.5437 63.6864 26.0068C63.6864 28.4691 65.5702 30.2708 67.9404 30.2708C70.3105 30.2708 72.1934 28.4691 72.1934 26.0068C72.1934 23.5437 70.2503 21.7419 67.9404 21.7419ZM67.9404 28.5886C66.6641 28.5886 65.5702 27.5075 65.5702 26.0068C65.5702 24.445 66.665 23.4242 67.9404 23.4242C69.2166 23.4242 70.3105 24.445 70.3105 26.0059C70.3105 27.5075 69.2157 28.5886 67.9394 28.5886H67.9404ZM58.6433 21.7419C56.2722 21.7419 54.3893 23.5437 54.3893 26.0068C54.3893 28.4691 56.2732 30.2708 58.6433 30.2708C61.0134 30.2708 62.8963 28.4691 62.8963 26.0068C62.8963 23.5437 61.0125 21.7419 58.6433 21.7419ZM58.6433 28.5886C57.3661 28.5886 56.2722 27.5075 56.2722 26.0068C56.2722 24.445 57.367 23.4242 58.6433 23.4242C59.9186 23.4242 61.0134 24.445 61.0134 26.0059C61.0134 27.5075 59.9186 28.5886 58.6433 28.5886ZM47.5827 23.0629V24.8646H51.8969C51.7756 25.8864 51.4107 26.6071 50.9253 27.1472C50.3169 27.7475 49.3444 28.4691 47.5827 28.4691C44.9097 28.4691 42.8434 26.307 42.8434 23.6641C42.8434 21.0212 44.9088 18.8591 47.5827 18.8591C49.0415 18.8591 50.0733 19.4001 50.8031 20.1199L52.0794 18.8591C50.9856 17.8382 49.5879 17.0573 47.5818 17.0573C43.9363 17.0573 40.8984 20.0004 40.8984 23.6641C40.8984 27.3278 43.9363 30.2708 47.5827 30.2708C49.5268 30.2708 51.0467 29.6094 52.2016 28.4089C53.4159 27.2074 53.7808 25.5261 53.7808 24.2042C53.7808 23.7845 53.7206 23.4232 53.6595 23.0638H47.5827V23.0629ZM92.7317 24.445C92.3677 23.4844 91.2738 21.7419 89.0862 21.7419C86.8985 21.7419 85.0758 23.4844 85.0758 26.0068C85.0758 28.4089 86.8985 30.2708 89.2686 30.2708C89.9643 30.2767 90.6506 30.1096 91.2657 29.7846C91.8808 29.4596 92.4056 28.9869 92.7928 28.4089L91.335 27.4473C90.8487 28.168 90.18 28.6488 89.2686 28.6488C88.297 28.6488 87.6283 28.2282 87.2023 27.388L92.8539 25.0453L92.7326 24.445H92.7317ZM86.9596 25.8864C86.8985 24.2644 88.235 23.4232 89.1473 23.4232C89.8771 23.4232 90.5449 23.7836 90.7274 24.3246L86.9596 25.8855V25.8864ZM82.3408 30.03H84.2255V17.477H82.3408V30.03ZM79.3028 22.7035H79.2426C78.8166 22.2227 78.0266 21.7419 76.9939 21.7419C74.8673 21.7419 72.9223 23.6039 72.9223 26.0068C72.9223 28.4089 74.8673 30.2708 76.9939 30.2708C78.0266 30.2708 78.8166 29.7901 79.2426 29.3093H79.3028V29.9096C79.3028 31.5316 78.4526 32.432 77.0541 32.432C75.9 32.432 75.2313 31.5918 74.9284 30.9313L73.2872 31.5918C73.7726 32.7322 74.9887 34.1143 77.055 34.1143C79.2426 34.1143 81.0654 32.8526 81.0654 29.6696V22.043H79.3028V22.7035ZM77.1763 28.5886C75.9 28.5886 74.8062 27.5075 74.8062 26.0068C74.8062 24.5052 75.9009 23.4242 77.1763 23.4242C78.4526 23.4242 79.4251 24.5052 79.4251 26.0059C79.4251 27.5075 78.4526 28.5886 77.1754 28.5886H77.1763ZM101.483 17.477H97.0468V30.03H98.9306V25.2861H101.543C103.61 25.2861 105.615 23.7845 105.615 21.3816C105.555 18.9795 103.55 17.477 101.482 17.477H101.483ZM101.543 23.5437H98.8704V19.2194H101.543C102.941 19.2194 103.731 20.3607 103.731 21.3816C103.731 22.3422 102.941 23.5437 101.543 23.5437ZM113.029 21.7419C111.692 21.7419 110.294 22.3422 109.686 23.6632L111.327 24.3848C111.692 23.6641 112.359 23.4844 113.028 23.4844C114.001 23.4844 114.973 24.0837 114.973 25.1055V25.2259C114.372 24.914 113.705 24.7492 113.028 24.7451C111.267 24.7451 109.443 25.7058 109.443 27.5677C109.443 29.25 110.903 30.3301 112.542 30.3301C113.819 30.3301 114.487 29.7901 114.913 29.1287H114.973V30.0902H116.796V25.2852C116.796 23.0036 115.155 21.7419 113.028 21.7419H113.029ZM112.786 28.5886C112.178 28.5886 111.327 28.2875 111.327 27.5075C111.327 26.5469 112.359 26.1856 113.272 26.1856C114.062 26.1856 114.487 26.3663 114.973 26.6062C114.915 27.1474 114.66 27.6483 114.257 28.0138C113.853 28.3793 113.33 28.5839 112.785 28.5886H112.786ZM123.359 21.9827L121.231 27.3871H121.171L118.984 21.9827H116.978L120.321 29.5501L118.436 33.7539H120.381L125.485 21.9827H123.359ZM106.587 30.0291H108.471V17.4788H106.587V30.0309V30.0291Z" fill="#333333"/>
<path d="M10.4072 32.4321C10.1034 32.0681 9.98209 31.6439 9.92188 31.2197V8.91066C9.92188 8.42624 10.0432 7.94091 10.4063 7.5769C10.4674 7.5769 10.5276 7.63803 10.5888 7.69824L19.8639 16.9734L22.713 19.8225L22.8955 20.0049C22.8955 20.1263 22.7732 20.1865 22.713 20.2467L16.9538 26.006C15.6811 27.2795 14.3474 28.5521 13.0738 29.8859C12.2856 30.7343 11.4372 31.5225 10.649 32.3719C10.5276 32.3719 10.4665 32.4321 10.4063 32.4321H10.4072Z" fill="#01D4FE"/>
<path d="M10.4306 32.4332L13.8243 29.0386L22.7364 20.1274L22.8577 20.0061H22.9179C22.9791 20.0061 23.0393 20.0663 23.1004 20.1274L26.9794 24.0065C27.0406 24.0676 27.1619 24.1278 27.1008 24.2491C26.0699 24.8558 25.1001 25.4014 24.0702 26.0071C21.2211 27.6437 18.372 29.2813 15.5221 30.8568C14.5523 31.4024 13.5214 32.009 12.5517 32.5537C12.1886 32.7972 11.7634 32.9186 11.3392 32.8574C10.915 32.7972 10.6733 32.675 10.4297 32.4332H10.4306Z" fill="#FE3A44"/>
<path d="M22.8577 20.0059C20.1902 17.3383 17.5227 14.731 14.9163 12.0644L10.551 7.69915C10.4908 7.63894 10.4297 7.63894 10.4297 7.57782C10.7946 7.15361 11.2781 7.0934 11.8246 7.21473C12.2488 7.33607 12.673 7.57782 13.037 7.76028L18.1294 10.6705C19.766 11.5791 21.4026 12.5498 23.0393 13.4584C24.373 14.2466 25.7068 14.9737 27.0406 15.7619C27.1008 15.823 26.9794 15.8833 26.9794 15.9444L23.0393 19.8845C22.9791 19.9447 22.9179 20.0059 22.8568 20.0059H22.8577Z" fill="#03EE76"/>
<path d="M22.8516 20.0057C22.9118 19.9445 22.9729 19.8843 22.9729 19.8232L26.9131 15.8831C26.9733 15.8228 27.0344 15.8228 27.0344 15.7617C28.671 16.7315 30.3688 17.641 32.0054 18.6108C32.4296 18.8534 32.7936 19.2174 32.915 19.7019C33.0354 20.127 32.8538 20.5503 32.6112 20.8541C32.4287 21.0968 32.187 21.2783 31.9452 21.3996C30.3077 22.3092 28.7312 23.2187 27.0946 24.1274C27.0946 24.1274 27.0344 24.1274 27.0344 24.1885C27.0344 24.1274 26.9733 24.0672 26.9131 24.006C25.6395 22.6723 24.3067 21.3996 22.972 20.0659C22.9118 20.0659 22.9118 20.0057 22.8516 20.0057Z" fill="#FED504"/>
</svg>
