<?xml version="1.0" encoding="UTF-8"?>
<svg id="_图层_1" data-name=" 图层 1" xmlns="http://www.w3.org/2000/svg" viewBox="0 0 17.84 17.83">
  <g id="icon-3" transform="rotate(90) translate(0 -17.84)">
    <path d="m0,8.91c0,4.92,3.99,8.92,8.91,8.92s8.93-4,8.93-8.92S13.85,0,8.91,0,0,3.99,0,8.91Z" style="stroke-width: 0px;"/>
    <g>
      <path d="m10.26,6.26c0,.12-.06.23-.15.29l-.63.45,1.99.69c.15.05.24.18.24.34v.02c-.01.16-.12.29-.28.33l-3.69.82,2.26.65c.13.04.23.15.25.29v.06c0,.12-.06.23-.16.3l-.81.55.78.45c.11.06.18.18.18.31v2.12c.38-.25.73-.55,1.03-.89l3.67-4.12-.01-.02-3.66-4.03c-.31-.34-.66-.65-1.05-.9,0,0,.04,2.29.04,2.29Z" style="fill: #fff; stroke-width: 0px;"/>
      <path d="m7.43,3.16c-1.71.15-3.14,1.36-3.14,3.03,0,1.23.76,2.22,1.85,2.7.01.01.02.01.04.02-1.11.47-1.88,1.54-1.88,2.78,0,1.61,1.32,2.78,2.93,3.01h1.03c.11-.02.23-.04.37-.07.4-.1.79-.24,1.15-.43v-2.33l-.89-.51c-.11-.06-.17-.17-.18-.3v-.01c0-.12.06-.23.16-.3l.75-.51-2.48-.71c-.15-.04-.26-.18-.26-.34v-.01c0-.17.12-.3.28-.34l3.74-.83-1.8-.62c-.13-.04-.22-.15-.24-.29v-.05c0-.12.06-.22.15-.29l.78-.56-.03-2.51c-.36-.18-.74-.33-1.14-.42-.38-.09-.67-.11-.87-.12h-.02c-.2-.01-.3.01-.3.01Z" style="fill: #fff; stroke-width: 0px;"/>
    </g>
  </g>
</svg>