<?xml version="1.0" encoding="UTF-8"?>
<svg id="_图层_2" data-name="图层 2" xmlns="http://www.w3.org/2000/svg" viewBox="0 0 44.2 44.5">
  <defs>
    <style>
      .cls-1 {
        fill: #000;
      }

      .cls-2 {
        fill: #fff;
      }

      .cls-3 {
        fill: none;
      }
    </style>
  </defs>
  <g id="_图层_1-2" data-name="图层 1">
    <g>
      <path class="cls-1" d="m44.2,22.25c0,12.28-9.89,22.25-22.1,22.25C9.89,44.5,0,34.53,0,22.25,0,9.96,9.89,0,22.1,0c12.2,0,22.1,9.96,22.1,22.25Z"/>
      <path class="cls-3" d="m22.1,37.52h0c-8.38,0-15.17-6.84-15.17-15.27h0c0-8.43,6.79-15.27,15.17-15.27h0c8.38,0,15.17,6.84,15.17,15.27h0c0,8.43-6.79,15.27-15.17,15.27Z"/>
      <path class="cls-2" d="m31.45,13.64H9.53l3.08,5.38v13.24c0,1.34,1.08,2.42,2.42,2.42h12.22c1.34,0,2.42-1.08,2.42-2.42v-16.13h.59c1.24,0,2.25,1.01,2.25,2.25v8.02c0,.57.41,1.08.97,1.14.65.06,1.19-.44,1.19-1.08v-9.6c0-1.78-1.44-3.22-3.22-3.22Zm-17.5,2.86h3.96v.66h-3.96v-.66Zm0,2.19h2.42v.66h-2.42v-.66Zm0,2.19h3.96v.66h-3.96v-.66Zm0,2.19h2.42v.66h-2.42v-.66Zm0,2.19h3.96v.66h-3.96v-.66Zm14.39,6.95c0,.54-.44.98-.98.98h-12.44c-.54,0-.98-.44-.98-.98v-5.05h14.39v5.05Z"/>
    </g>
  </g>
</svg>