<?xml version="1.0" encoding="utf-8"?>
<!-- Generator: Adobe Illustrator 27.2.0, SVG Export Plug-In . SVG Version: 6.00 Build 0)  -->
<svg version="1.1" id="_图层_2" xmlns="http://www.w3.org/2000/svg" xmlns:xlink="http://www.w3.org/1999/xlink" x="0px" y="0px"
	 viewBox="0 0 20.2 20.1" style="enable-background:new 0 0 20.2 20.1;" xml:space="preserve">
<style type="text/css">
	.st0{fill:#000;}
	.st1{fill:none;}
	.st2{fill:#fff;}
</style>
<g id="_图层_1-2">
	<g>
		<path class="st0" d="M10.1,20.1L10.1,20.1c-5.5,0-10-4.5-10-10.1l0,0c0-5.6,4.5-10.1,10-10.1l0,0c5.6,0,10,4.5,10,10.1l0,0
			C20.1,15.6,15.7,20.1,10.1,20.1L10.1,20.1z"/>
		<path class="st1" d="M10.1,16.9L10.1,16.9c-3.8,0-6.9-3.1-6.9-6.9l0,0C3.2,6.1,6.3,3,10.1,3l0,0C13.9,3,17,6.1,17,10l0,0
			C17,13.8,13.9,16.9,10.1,16.9z"/>
		<g>
			<polygon class="st2" points="6.5,5.9 6.4,7.2 6.3,8.4 5.2,7.7 4.2,6.9 5.4,6.4 			"/>
			<polygon class="st2" points="12.7,14.9 14,14.5 15.2,14.2 14.3,13.3 13.4,12.4 13.1,13.6 			"/>
			<path class="st2" d="M14.3,13.9c1-1.1,1.6-2.5,1.6-3.9c0-3.2-2.6-5.8-5.8-5.8C9,4.2,8,4.5,7.1,5.1L7,6.1C7.9,5.4,9,5,10.1,5
				c2.7,0,4.9,2.2,4.9,5c0,1.2-0.4,2.3-1.2,3.2l-0.1,0.1l0,0.1c0.1,0.2,0.2,0.3,0.3,0.6l0.1,0.2L14.3,13.9L14.3,13.9z"/>
			<path class="st2" d="M12.3,14.4c-0.7,0.4-1.4,0.5-2.2,0.5c-2.7,0-4.9-2.2-4.9-5c0-0.9,0.3-1.8,0.8-2.6l0-0.1L5.4,6.6L5.3,6.7
				c-0.6,1-1,2.1-1,3.2c0,3.2,2.6,5.8,5.8,5.8c0.7,0,1.3-0.1,1.9-0.3L12.3,14.4L12.3,14.4z"/>
		</g>
	</g>
</g>
</svg>
