<?xml version="1.0" encoding="UTF-8"?>
<svg id="_图层_2" data-name="图层 2" xmlns="http://www.w3.org/2000/svg" viewBox="0 0 62.78 62.78">
  <defs>
    <style>
      .cls-1 {
        fill: #000;
      }

      .cls-2 {
        fill: none;
        stroke: #000;
        stroke-miterlimit: 10;
        stroke-width: 2.06px;
      }
    </style>
  </defs>
  <g id="_图层_1-2" data-name="图层 1">
    <g>
      <path class="cls-2" d="m61.75,31.39c0,16.76-13.59,30.36-30.36,30.36S1.03,48.15,1.03,31.39,14.62,1.03,31.39,1.03s30.36,13.59,30.36,30.36Z"/>
      <path class="cls-1" d="m33.33,14.79c3.94,0,6.94,2.59,6.94,6.34v.91h-6.64c-.5,0-.91.41-.91.91s.41.9.91.9h6.64v3.62h-6.64c-.5,0-.91.41-.91.91s.41.9.91.9h6.64v3.62h-6.64c-.5,0-.91.4-.91.9s.41.91.91.91h6.64v.91c0,3.75-3,6.34-6.94,6.34h-.73v3.62h4.35c.67,0,1.21.54,1.21,1.21s-.54,1.21-1.21,1.21h-11.12c-.67,0-1.21-.54-1.21-1.21s.54-1.21,1.21-1.21h4.35v-3.62h-.73c-3.94,0-6.94-2.59-6.94-6.34v-.91h6.64c.5,0,.91-.4.91-.91s-.41-.9-.91-.9h-6.64v-3.62h6.64c.5,0,.91-.4.91-.9s-.41-.91-.91-.91h-6.64v-3.62h6.64c.5,0,.91-.4.91-.9s-.41-.91-.91-.91h-6.64v-.91c0-3.75,3-6.34,6.94-6.34h3.87Z"/>
      <path class="cls-1" d="m17.78,22.12c.17,0,.28.06.38.16.21.21.18.53-.03.73-.15.16-.24.25-.33.35-.26.3-.52.66-.76,1.07-.69,1.16-1.1,2.49-1.1,3.94s.41,2.78,1.1,3.94c.24.41.5.77.76,1.07.29.31.31.34.33.35.21.19.22.52.03.73-.19.21-.52.22-.73.03-.21-.21-.31-.32-.41-.44-.29-.35-.59-.75-.86-1.21-.78-1.31-1.25-2.81-1.25-4.47s.47-3.15,1.25-4.47c.27-.46.57-.86.86-1.21.35-.38.39-.42.41-.44,0,0,.12-.12.34-.13"/>
      <path class="cls-1" d="m45.07,22.12c.22.08.13.03.27.13.21.21.31.32.41.44.29.35.59.75.86,1.21.78,1.31,1.25,2.81,1.25,4.47s-.47,3.15-1.25,4.47c-.27.46-.57.86-.86,1.21-.34.38-.39.42-.41.44-.21.19-.53.18-.73-.03-.19-.21-.18-.53.03-.73.15-.16.24-.25.33-.35.26-.3.52-.66.76-1.07.69-1.16,1.1-2.49,1.1-3.94s-.41-2.78-1.1-3.94c-.24-.41-.5-.77-.76-1.07-.29-.32-.31-.34-.33-.35-.21-.19-.22-.52-.03-.73.16-.16.24-.15.46-.16"/>
      <path class="cls-1" d="m19.61,24.99h.06c.07,0,.14.01.28.11.24.17.26.5.08.72-.06.09-.1.14-.14.19-.11.17-.22.36-.33.57-.29.59-.47,1.2-.47,1.79s.17,1.21.47,1.79c.1.21.22.4.33.57.12.17.13.19.14.19.18.22.14.55-.08.72-.22.18-.55.14-.72-.08-.1-.13-.14-.19-.19-.26-.13-.2-.27-.43-.39-.68-.36-.72-.58-1.48-.58-2.25s.22-1.54.58-2.25c.12-.25.26-.48.39-.68.16-.22.18-.25.19-.26.09-.13.24-.18.39-.19"/>
      <path class="cls-1" d="m43.12,24.99c.19,0,.3.05.44.19.1.13.14.19.19.27.13.2.27.43.39.67.36.72.58,1.48.58,2.25s-.22,1.54-.58,2.25c-.12.25-.26.47-.39.68-.16.22-.18.25-.19.26-.18.22-.5.26-.72.08-.22-.18-.26-.5-.08-.72.06-.08.1-.13.14-.19.11-.17.22-.36.33-.57.29-.59.47-1.2.47-1.79s-.17-1.21-.47-1.79c-.1-.21-.22-.4-.33-.57-.12-.17-.13-.19-.14-.19-.18-.22-.14-.55.08-.72,0,0,.11-.11.28-.11"/>
    </g>
  </g>
</svg>