<?xml version="1.0" encoding="UTF-8"?>
<svg id="_图层_2" data-name="图层 2" xmlns="http://www.w3.org/2000/svg" viewBox="0 0 35.9 35.9">
  <defs>
    <style>
      .cls-1 {
        fill: #000;
      }

      .cls-2 {
        fill: #fff;
      }
    </style>
  </defs>
  <g id="_图层_1-2" data-name="图层 1">
    <g id="dual-layer-insulation-_-anti-scald-design" data-name="dual-layer-insulation-&amp;amp;-anti-scald-design">
      <path class="cls-1" d="m17.96,0C8.03,0,0,8.03,0,17.93s8.03,17.96,17.96,17.96,17.94-8.05,17.94-17.96S27.85,0,17.96,0Z"/>
      <g>
        <path class="cls-2" d="m27.64,23.56l-9.38,5.37c-.19.11-.43.11-.62,0l-9.38-5.37c-.42-.24-.42-.85,0-1.09l9.38-5.37c.19-.11.43-.11.62,0l9.38,5.37c.42.24.42.85,0,1.09Z"/>
        <g>
          <path class="cls-2" d="m27.64,19.09l-9.38,5.37c-.19.11-.43.11-.62,0l-9.38-5.37c-.42-.24-.42-.85,0-1.09l9.38-5.37c.19-.11.43-.11.62,0l9.38,5.37c.42.24.42.85,0,1.09Z"/>
          <path class="cls-1" d="m17.95,24.92c-.17,0-.35-.04-.5-.13l-9.38-5.37c-.32-.18-.51-.51-.51-.88s.19-.69.51-.88l9.38-5.37c.31-.17.69-.18,1,0l9.38,5.37c.32.18.51.51.51.88s-.19.69-.51.88l-9.38,5.37c-.15.09-.33.13-.5.13Zm0-11.99s-.09.01-.12.03l-9.38,5.37c-.11.06-.12.17-.12.21s.01.15.12.21l9.38,5.37c.08.04.17.04.24,0l9.38-5.37c.11-.06.12-.17.12-.21s-.01-.15-.12-.21l-9.38-5.37s-.08-.03-.12-.03Z"/>
        </g>
      </g>
      <g>
        <g>
          <path class="cls-2" d="m10.59,16.69c-.39,0-.71-.29-.72-.65-.08-2.75.9-3.55,1.69-4.19.72-.58,1.28-1.04,1.19-3.3-.01-.37.3-.69.7-.71h0c.42,0,.74.28.75.64.12,2.91-.89,3.72-1.7,4.38-.7.57-1.25,1.01-1.19,3.12,0,.37-.3.68-.7.7h-.04Z"/>
          <path class="cls-1" d="m13.49,8.08c.26,0,.48.18.49.42.11,2.79-.8,3.53-1.61,4.19-.72.58-1.34,1.09-1.28,3.31,0,.24-.21.45-.47.46,0,0,0,0,0,0,0,0-.01,0-.02,0-.26,0-.48-.19-.49-.43-.07-2.64.82-3.36,1.61-4,.74-.6,1.37-1.12,1.28-3.49,0-.24.2-.45.47-.46,0,0,.02,0,.02,0m0-.47h-.04c-.53.02-.94.45-.92.95.09,2.14-.42,2.55-1.11,3.11-.83.67-1.86,1.51-1.78,4.37.01.49.43.88.95.88.57-.02.98-.44.97-.94-.06-2,.43-2.39,1.1-2.94.85-.69,1.9-1.54,1.78-4.57-.02-.49-.44-.87-.95-.87h0Z"/>
        </g>
        <g>
          <path class="cls-2" d="m16.5,16.44c-.39,0-.71-.29-.72-.65-.08-2.75.9-3.55,1.69-4.19.72-.58,1.28-1.04,1.19-3.3-.01-.37.3-.69.7-.71h0c.42,0,.74.28.75.64.12,2.91-.89,3.72-1.7,4.38-.7.57-1.25,1.01-1.19,3.12.01.37-.3.68-.7.7h-.04Z"/>
          <path class="cls-1" d="m19.4,7.83c.26,0,.48.18.49.42.11,2.79-.8,3.53-1.61,4.19-.72.58-1.34,1.09-1.28,3.31,0,.24-.21.45-.47.46,0,0,0,0,0,0,0,0-.01,0-.02,0-.26,0-.48-.19-.49-.43-.07-2.64.82-3.36,1.61-4,.74-.6,1.37-1.12,1.28-3.49,0-.24.2-.45.47-.46,0,0,.02,0,.02,0m0-.47h-.04c-.53.02-.94.45-.92.95.09,2.14-.42,2.55-1.11,3.11-.83.67-1.86,1.51-1.78,4.37.01.49.43.88.95.88.57-.02.98-.44.97-.94-.06-2,.43-2.39,1.1-2.94.85-.69,1.9-1.54,1.78-4.57-.02-.49-.44-.87-.95-.87h0Z"/>
        </g>
        <g>
          <path class="cls-2" d="m22.41,16.18c-.39,0-.71-.29-.72-.65-.08-2.75.9-3.55,1.69-4.19.72-.58,1.28-1.04,1.19-3.3-.01-.37.3-.69.7-.71h0c.42,0,.74.28.75.65.12,2.91-.89,3.72-1.69,4.38-.7.57-1.25,1.01-1.19,3.12.01.37-.3.68-.7.7h-.04Z"/>
          <path class="cls-1" d="m25.31,7.57c.26,0,.48.18.49.42.11,2.79-.8,3.53-1.61,4.19-.72.58-1.34,1.09-1.28,3.31,0,.24-.21.45-.47.46,0,0,0,0,0,0,0,0-.01,0-.02,0-.26,0-.48-.19-.49-.43-.07-2.64.82-3.36,1.61-4,.74-.6,1.37-1.12,1.28-3.49,0-.24.2-.45.47-.46,0,0,.02,0,.02,0m0-.47h-.04c-.53.02-.94.45-.92.95.09,2.14-.42,2.55-1.11,3.11-.83.67-1.86,1.51-1.78,4.37.01.49.43.88.95.88.57-.02.98-.44.97-.94-.06-2,.43-2.39,1.1-2.94.85-.69,1.9-1.54,1.78-4.57-.02-.49-.44-.87-.95-.87h0Z"/>
        </g>
      </g>
    </g>
  </g>
</svg>