<svg xmlns="http://www.w3.org/2000/svg" viewBox="0 0 36.7 36.93"><defs><style>.cls-1{fill:#000;}.cls-2{fill:#fff;}.cls-3{fill:none;stroke:#fff;stroke-linejoin:bevel;stroke-width:0.29px;}</style></defs><g id="图层_2" data-name="图层 2"><g id="图层_1-2" data-name="图层 1"><g id="dual-lid-convenience"><path class="cls-1" d="M18.36,0A18.47,18.47,0,1,0,36.7,18.45,18.4,18.4,0,0,0,18.36,0Z"/><path class="cls-2" d="M16,13.35c0-.17-.14-1.52-1.06-1.93a1.51,1.51,0,0,0-.37-.1H9a1.55,1.55,0,0,0-.36.1c-.92.41-1,1.76-1.06,1.93l-.06,1h8.59Z"/><path class="cls-2" d="M9.49,8.05H14a.67.67,0,0,1,.67.67V11a.06.06,0,0,1-.06.06H8.89A.06.06,0,0,1,8.83,11V8.72A.67.67,0,0,1,9.49,8.05Z"/><path class="cls-2" d="M15.09,10.07h-.45V11h.45a.45.45,0,0,0,.45-.45A.45.45,0,0,0,15.09,10.07Zm0,.66a.2.2,0,0,1-.2-.21.2.2,0,0,1,.4,0A.2.2,0,0,1,15.11,10.73Z"/><path class="cls-2" d="M11.83,15.56a1.7,1.7,0,0,0-1.7,1.7v3a1.7,1.7,0,0,0,3.39,0v-3A1.7,1.7,0,0,0,11.83,15.56Zm.47,4.62a.48.48,0,1,1-1,0V17.37a.48.48,0,1,1,1,0Z"/><path class="cls-2" d="M15.74,15v6.6a1.14,1.14,0,0,1-1.15,1.15H9a1.14,1.14,0,0,1-1.15-1.15V15h7.93M16,14.7H7.52v6.88A1.43,1.43,0,0,0,9,23h5.63A1.43,1.43,0,0,0,16,21.58V14.7Z"/><path class="cls-2" d="M29.15,18.28c0-.18-.15-1.52-1.06-1.93a1.64,1.64,0,0,0-.37-.1H22.1a1.55,1.55,0,0,0-.36.1c-.92.41-1,1.75-1.06,1.93l-.06,1h8.59Z"/><path class="cls-2" d="M22.62,14.16h4.55a.67.67,0,0,1,.67.67v1.12a.06.06,0,0,1-.06.06H22a.06.06,0,0,1-.06-.06V14.83A.67.67,0,0,1,22.62,14.16Z"/><path class="cls-2" d="M28.22,15h-.45v.9h.45a.45.45,0,1,0,0-.9Zm0,.65a.2.2,0,1,1,.2-.2A.2.2,0,0,1,28.24,15.65Z"/><path class="cls-2" d="M25,20.49a1.69,1.69,0,0,0-1.69,1.69v3.05a1.7,1.7,0,0,0,3.39,0V22.18A1.7,1.7,0,0,0,25,20.49Zm.48,4.62a.48.48,0,1,1-.95,0V22.3a.48.48,0,1,1,.95,0Z"/><path class="cls-2" d="M28.87,19.91v6.6a1.14,1.14,0,0,1-1.15,1.15H22.09a1.14,1.14,0,0,1-1.15-1.15v-6.6h7.93m.29-.29H20.65v6.89A1.43,1.43,0,0,0,22.09,28h5.63a1.43,1.43,0,0,0,1.44-1.44V19.62Z"/><rect class="cls-2" x="24.4" y="12.29" width="1" height="1.87"/><line class="cls-3" x1="21.19" y1="7.32" x2="15.83" y2="31.13"/></g></g></g></svg>