<?xml version="1.0" encoding="UTF-8"?>
<svg id="_图层_1" data-name="图层 1" xmlns="http://www.w3.org/2000/svg" viewBox="0 0 46.86 46.87">
  <g id="icon-3">
    <path d="m23.43,0C10.49,0,0,10.49,0,23.43s10.5,23.44,23.43,23.44,23.43-10.49,23.43-23.44c0-12.94-10.49-23.43-23.43-23.43" style="fill: #000; stroke-width: 0px;"/>
    <path d="m9.72,32.04c-1.16,0-2.09.94-2.09,2.09,0,1.16.94,2.09,2.09,2.09,1.16,0,2.09-.94,2.09-2.09.01-1.16-.93-2.09-2.09-2.09Zm5.26,3.27c-.58,0-1.05.47-1.05,1.05s.47,1.05,1.05,1.05,1.05-.47,1.05-1.05-.47-1.05-1.05-1.05Zm21.07-25.64c-1.41-1.09-3.43-.83-4.52.57l-5.22,6.73c.63.33,1.22.76,1.74,1.27.52.52.94,1.11,1.27,1.74l6.73-5.22c.2-.16.41-.36.57-.57,1.1-1.4.84-3.43-.57-4.52Zm-1.15,3.95c-.61.61-1.61.61-2.22,0s-.61-1.61,0-2.22,1.61-.61,2.22,0c.62.61.62,1.6,0,2.22Zm-11.7,4.41c-.57,0-1.11.11-1.61.31-4.15,1.47-8.83,3.07-11.99,3.38-.42.04-.79.28-1,.65s-.22.81-.05,1.19c1.34,2.86,3.14,5.46,5.28,7.73l3.16-1.87c.07-.04.16-.03.22.03.06.06.07.15.03.23l-1.87,3.15c1.3,1.19,2.71,2.26,4.21,3.2l1.39-2c.05-.07.14-.1.22-.06.08.03.13.12.11.21l-.52,2.57c.63.36,1.28.7,1.94,1.01.17.08.36.12.55.12.22,0,.44-.06.64-.17.37-.21.61-.58.65-1,.32-3.16,1.91-7.84,3.38-11.99.69-1.67.2-3.74-1.21-5.16-.95-.98-2.25-1.53-3.53-1.53Z" style="fill: #fff; stroke-width: 0px;"/>
  </g>
</svg>