<svg xmlns="http://www.w3.org/2000/svg" xmlns:xlink="http://www.w3.org/1999/xlink" viewBox="0 0 36.7 36.68"><defs><style>.cls-1,.cls-5{fill:none;}.cls-2{fill:#000;}.cls-3{clip-path:url(#clip-path);}.cls-4{fill:#fff;}.cls-5{stroke:#fff;stroke-linecap:round;stroke-linejoin:round;stroke-width:0.26px;}</style><clipPath id="clip-path"><path class="cls-1" d="M18.36,2.41A15.93,15.93,0,1,0,34.28,18.33,15.93,15.93,0,0,0,18.36,2.41Z"/></clipPath></defs><g id="图层_2" data-name="图层 2"><g id="图层_1-2" data-name="图层 1"><g id="grab-and-go"><path class="cls-2" d="M18.36,0A18.34,18.34,0,1,0,36.7,18.32,18.33,18.33,0,0,0,18.36,0Z"/><g class="cls-3"><path class="cls-4" d="M24.9,15c0-.27-.22-2.36-1.64-3a2,2,0,0,0-.57-.15H14a2,2,0,0,0-.56.15c-1.42.63-1.62,2.72-1.64,3l-.09,1.61H25Z"/><path class="cls-4" d="M14.81,6.76h7a1,1,0,0,1,1,1v3.56a.1.1,0,0,1-.1.1h-8.9a.1.1,0,0,1-.1-.1V7.79A1,1,0,0,1,14.81,6.76Z"/><path class="cls-4" d="M23.46,9.89h-.69v1.39h.69a.7.7,0,1,0,0-1.39Zm0,1a.32.32,0,0,1,0-.63.32.32,0,1,1,0,.63Z"/><path class="cls-4" d="M18.41,18.66A2.34,2.34,0,0,1,20.75,21v4.7a2.34,2.34,0,0,1-4.68,0V21a2.34,2.34,0,0,1,2.34-2.34m0,7.89a1,1,0,0,0,1-1V21.17a1,1,0,0,0-2.05,0v4.36a1,1,0,0,0,1,1m0-8.18A2.62,2.62,0,0,0,15.79,21v4.7a2.63,2.63,0,1,0,5.25,0V21a2.63,2.63,0,0,0-2.63-2.63Zm0,7.9a.74.74,0,0,1-.74-.74V21.17a.74.74,0,0,1,1.48,0v4.36a.74.74,0,0,1-.74.74Z"/><path class="cls-4" d="M24.47,17.49v10.2a1.78,1.78,0,0,1-1.78,1.78H14a1.78,1.78,0,0,1-1.77-1.78V17.49H24.47m.45-.45H11.75V27.69A2.23,2.23,0,0,0,14,29.92h8.72a2.23,2.23,0,0,0,2.23-2.23V17Z"/><path class="cls-4" d="M31.57,35.08a3.85,3.85,0,0,1-.9-1.29c0-.19-.33-.47-.46-.51a7.67,7.67,0,0,1-1.26-1c-.46-.37-1-.79-1.39-1.11s-1.11-.83-1.54-1.14l-.69-.51c-.32-.26-.27-.93-.26-1A7,7,0,0,0,25,26.82a6,6,0,0,0-2.08-2.21,1.59,1.59,0,0,1-.51.07,3.86,3.86,0,0,1-.71-.08,5.53,5.53,0,0,0-1.18-.13h-.23a5.71,5.71,0,0,1-.68,0,4.18,4.18,0,0,1-1.45-.25l-.13,0h0A4.42,4.42,0,0,1,17,24,1.64,1.64,0,0,1,16,23a1,1,0,0,1,.19-.95,5.33,5.33,0,0,1,2.35-1,4.35,4.35,0,0,0,.94-.24,1.89,1.89,0,0,1,.6-.09,2.66,2.66,0,0,1,.73.11,11.67,11.67,0,0,0,2.65.41A2.59,2.59,0,0,0,24.7,21c1-.61.39-2,.38-2l0-2.73.24.47a7,7,0,0,0,1.8,1.59l.54.37a9.72,9.72,0,0,0,1.16.77c3.84,2.08,6.49,7.57,6.52,7.63l0,.05-3.57,8.27Z"/><path class="cls-2" d="M25.23,16.76a6.93,6.93,0,0,0,1.86,1.64c.36.23,1.09.82,1.7,1.15,3.85,2.08,6.46,7.56,6.46,7.56l-3.47,8a6.4,6.4,0,0,1-1-1.35.94.94,0,0,0-.56-.62c-.17,0-1.63-1.32-2.6-2.07s-1.95-1.42-2.23-1.64-.21-.89-.21-.89a7.8,7.8,0,0,0-.09-1.8,5.88,5.88,0,0,0-2.18-2.29,1.33,1.33,0,0,1-.52.08,3.23,3.23,0,0,1-.68-.08,5.9,5.9,0,0,0-1.21-.13h-.24a5.73,5.73,0,0,1-.67,0A4.63,4.63,0,0,1,18,24.1a4.27,4.27,0,0,1-.95-.21c-.84-.29-1.31-1.2-.81-1.8a5.24,5.24,0,0,1,2.28-.91,4.71,4.71,0,0,0,1-.25,1.85,1.85,0,0,1,.56-.08,2.5,2.5,0,0,1,.69.1,11.49,11.49,0,0,0,2.69.42,2.71,2.71,0,0,0,1.31-.26c1.15-.68.44-2.21.44-2.21l0-2.14M25,15.7v1.05l0,2.15V19L25,19c0,.06.6,1.33-.33,1.88a2.38,2.38,0,0,1-1.18.23,11.49,11.49,0,0,1-2.62-.41,2.21,2.21,0,0,0-.76-.12,1.83,1.83,0,0,0-.64.1,3.91,3.91,0,0,1-.9.23,5.2,5.2,0,0,0-2.45,1A1.14,1.14,0,0,0,15.87,23,1.74,1.74,0,0,0,17,24.13a4.22,4.22,0,0,0,1,.23l.08,0a4.11,4.11,0,0,0,1.49.26,4.2,4.2,0,0,0,.7,0h.21a5.85,5.85,0,0,1,1.16.12,3.25,3.25,0,0,0,.73.08,1.87,1.87,0,0,0,.49-.05,6,6,0,0,1,2,2.13,8.28,8.28,0,0,1,.05,1.67c0,.12-.06.8.31,1.1.12.1.37.28.7.51s1,.71,1.54,1.14l1.38,1.11a7.22,7.22,0,0,0,1.3,1c.11,0,.36.28.37.4s.25.57.93,1.36l.11.13.27.34.17-.39,3.47-8,0-.11L35.48,27c-.11-.22-2.69-5.58-6.57-7.68a12,12,0,0,1-1.15-.76c-.21-.15-.4-.29-.54-.37a7.11,7.11,0,0,1-1.76-1.55L25,15.7Z"/><path class="cls-5" d="M24.94,26.8c.29.5,1.82,1.09,1.82,1.09S29.82,30,31.14,29.8"/><path class="cls-2" d="M18,23.53c-.57.27-1.58-.12-1.58-.76-.06-1,1.47-1.13,1.7-1.13a2.25,2.25,0,0,0,0,1.83Z"/><path class="cls-5" d="M20.77,21.3a3.11,3.11,0,0,1-.14,1.06"/><path class="cls-5" d="M21.68,21.52a2.09,2.09,0,0,1-.48,1.8"/><path class="cls-5" d="M26.66,24.22a4.62,4.62,0,0,1-2.52,1.05"/><path class="cls-5" d="M27.22,25.11a5.08,5.08,0,0,1-2.29.84"/></g></g></g></g></svg>