<svg xmlns="http://www.w3.org/2000/svg" viewBox="0 0 36.7 36.93"><defs><style>.cls-1{fill:#000;}.cls-2{fill:#fff;}</style></defs><g id="图层_2" data-name="图层 2"><g id="图层_1-2" data-name="图层 1"><g id="max-20-cups-on-full-charge"><path class="cls-1" d="M18.36,0A18.47,18.47,0,1,0,36.7,18.45,18.4,18.4,0,0,0,18.36,0Z"/><rect class="cls-2" x="11.56" y="9.3" width="13.58" height="18.96" rx="1.99"/><path class="cls-2" d="M15,7h6.69a1.08,1.08,0,0,1,1.08,1.08v.58a0,0,0,0,1,0,0H13.92a0,0,0,0,1,0,0V8.06A1.08,1.08,0,0,1,15,7Z"/><rect class="cls-1" x="14.6" y="23.79" width="7.5" height="1.65" rx="0.23"/><rect class="cls-1" x="14.6" y="19.9" width="7.5" height="1.65" rx="0.23"/><rect class="cls-1" x="14.6" y="16.01" width="7.5" height="1.65" rx="0.23"/><rect class="cls-1" x="14.6" y="12.12" width="7.5" height="1.65" rx="0.23"/></g></g></g></svg>