<?xml version="1.0" encoding="UTF-8"?>
<svg id="_图层_2" data-name="图层 2" xmlns="http://www.w3.org/2000/svg" viewBox="0 0 33.88 34.1">
  <defs>
    <style>
      .cls-1 {
        fill: #000;
      }

      .cls-2 {
        fill: #fff;
      }
    </style>
  </defs>
  <g id="_图层_1-2" data-name="图层 1">
    <g>
      <path class="cls-1" d="m16.94,34.1h0C7.58,34.1,0,26.47,0,17.05S7.58,0,16.94,0s16.94,7.64,16.94,17.05-7.58,17.05-16.94,17.05"/>
      <path class="cls-2" d="m21.78,12.45s-.93,1.16-4.99,0c-4.59-1.31-8.78.67-10.45,1.94l7.24,4.45s2.94-3.07,8.17-2.14c4.55.8,5.79-1.31,5.79-1.31l-5.76-2.95Zm-.9,3.48c-4.62-.81-7.34,1.88-7.34,1.88l-5.35-3.31c1.24-.75,4.16-2.47,8.17-1.17,3.32,1.07,5.29,0,5.29,0l4.66,2.08s-1.4,1.24-5.43.53"/>
      <path class="cls-2" d="m25.31,19.09c1.68-.39,2.23-1.31,2.23-1.31l-2.12-1.09c-.33.09-.72.15-1.15.18l2.04.91s-1.4,1.24-5.43.53c-4.62-.81-7.34,1.88-7.34,1.88l-5.35-3.31c.29-.18.67-.41,1.14-.64l-1.02-.62c-.83.38-1.5.8-1.98,1.16l7.23,4.46s2.95-3.07,8.17-2.14c1.06.19,3.28.48-.75-.23-4.62-.81-7.41,1.84-7.41,1.84l-2.2-1.27c.29-.18-.4-.21-2.06-.82l-1.02-.62c-.83.38-1.5.8-1.98,1.16l7.23,4.46s2.95-3.07,8.17-2.14c4.56.8,5.8-1.31,5.8-1.31l-2.12-1.09s-.07.01-.11.02"/>
    </g>
  </g>
</svg>