<?xml version="1.0" encoding="UTF-8"?>
<svg id="_图层_2" data-name="图层 2" xmlns="http://www.w3.org/2000/svg" viewBox="0 0 35.9 35.9">
  <defs>
    <style>
      .cls-1 {
        fill: #000;
      }

      .cls-2 {
        fill: #fff;
      }
    </style>
  </defs>
  <g id="_图层_1-2" data-name="图层 1">
    <g id="see-through-glass-lid">
      <path class="cls-1" d="m17.96,0C8.03,0,0,8.03,0,17.93s8.03,17.96,17.96,17.96,17.94-8.05,17.94-17.96S27.85,0,17.96,0Z"/>
      <g>
        <path class="cls-2" d="m17.96,7.61c-5.72,0-10.35,4.62-10.35,10.33s4.63,10.35,10.35,10.35,10.33-4.64,10.33-10.35-4.63-10.33-10.33-10.33Z"/>
        <g>
          <path class="cls-1" d="m16.2,19.87s-.08,0-.11-.02c-.19-.06-.3-.27-.23-.46l2.01-6.15c.06-.19.27-.3.46-.23.19.06.3.27.23.46l-2.01,6.15c-.05.15-.19.25-.35.25Z"/>
          <path class="cls-1" d="m17.68,22.91s-.08,0-.11-.02c-.19-.06-.3-.27-.23-.46l2.02-6.15c.06-.19.27-.3.46-.23.19.06.3.27.23.46l-2.02,6.15c-.05.15-.19.25-.35.25Z"/>
        </g>
        <path class="cls-2" d="m17.96,29.85c-6.57,0-11.91-5.34-11.91-11.91s5.34-11.89,11.91-11.89,11.89,5.33,11.89,11.89-5.34,11.91-11.89,11.91Zm0-23.07c-6.16,0-11.18,5.01-11.18,11.16s5.01,11.18,11.18,11.18,11.16-5.01,11.16-11.18-5.01-11.16-11.16-11.16Z"/>
      </g>
      <circle class="cls-1" cx="23.67" cy="12.26" r=".99"/>
    </g>
  </g>
</svg>